<?xml version="1.0" encoding="UTF-8" standalone="no"?>
<!-- Created with Inkscape (http://www.inkscape.org/) -->

<svg
   xmlns:osb="http://www.openswatchbook.org/uri/2009/osb"
   xmlns:dc="http://purl.org/dc/elements/1.1/"
   xmlns:cc="http://creativecommons.org/ns#"
   xmlns:rdf="http://www.w3.org/1999/02/22-rdf-syntax-ns#"
   xmlns:svg="http://www.w3.org/2000/svg"
   xmlns="http://www.w3.org/2000/svg"
   xmlns:xlink="http://www.w3.org/1999/xlink"
   xmlns:sodipodi="http://sodipodi.sourceforge.net/DTD/sodipodi-0.dtd"
   xmlns:inkscape="http://www.inkscape.org/namespaces/inkscape"
   width="210mm"
   height="297mm"
   viewBox="0 0 744.09448819 1052.3622047"
   id="svg2"
   version="1.1"
   inkscape:version="0.91 r13725"
   sodipodi:docname="Portiere_Porta_Goal.svg">
  <defs
     id="defs4">
    <linearGradient
       id="linearGradient5832"
       osb:paint="solid">
      <stop
         style="stop-color:#f9f9f9;stop-opacity:1;"
         offset="0"
         id="stop5834" />
    </linearGradient>
    <linearGradient
       id="linearGradient5826"
       osb:paint="solid">
      <stop
         style="stop-color:#000000;stop-opacity:1;"
         offset="0"
         id="stop5828" />
    </linearGradient>
    <linearGradient
       id="linearGradient5817"
       osb:paint="solid">
      <stop
         style="stop-color:#f9f9f9;stop-opacity:1;"
         offset="0"
         id="stop5819" />
    </linearGradient>
    <linearGradient
       id="linearGradient5808"
       osb:paint="solid">
      <stop
         style="stop-color:#f9f9f9;stop-opacity:1;"
         offset="0"
         id="stop5810" />
    </linearGradient>
    <linearGradient
       id="linearGradient5799"
       osb:paint="solid">
      <stop
         style="stop-color:#f9f9f9;stop-opacity:1;"
         offset="0"
         id="stop5801" />
    </linearGradient>
    <linearGradient
       id="linearGradient5782"
       osb:paint="solid">
      <stop
         style="stop-color:#008000;stop-opacity:1;"
         offset="0"
         id="stop5784" />
    </linearGradient>
    <linearGradient
       id="linearGradient5754"
       osb:paint="solid">
      <stop
         style="stop-color:#000000;stop-opacity:1;"
         offset="0"
         id="stop5756" />
    </linearGradient>
    <linearGradient
       id="linearGradient5742"
       osb:paint="solid">
      <stop
         style="stop-color:#000000;stop-opacity:1;"
         offset="0"
         id="stop5744" />
    </linearGradient>
    <linearGradient
       id="linearGradient5727"
       osb:paint="solid">
      <stop
         style="stop-color:#000000;stop-opacity:1;"
         offset="0"
         id="stop5729" />
    </linearGradient>
    <linearGradient
       id="linearGradient5715"
       osb:paint="solid">
      <stop
         style="stop-color:#000000;stop-opacity:1;"
         offset="0"
         id="stop5717" />
    </linearGradient>
    <linearGradient
       id="linearGradient5699"
       osb:paint="solid">
      <stop
         style="stop-color:#000000;stop-opacity:1;"
         offset="0"
         id="stop5701" />
    </linearGradient>
    <linearGradient
       id="linearGradient5690"
       osb:paint="solid">
      <stop
         style="stop-color:#000000;stop-opacity:1;"
         offset="0"
         id="stop5692" />
    </linearGradient>
    <linearGradient
       id="linearGradient5682"
       osb:paint="solid">
      <stop
         style="stop-color:#000000;stop-opacity:1;"
         offset="0"
         id="stop5684" />
    </linearGradient>
    <linearGradient
       id="linearGradient5660"
       osb:paint="solid">
      <stop
         style="stop-color:#000000;stop-opacity:1;"
         offset="0"
         id="stop5662" />
    </linearGradient>
    <linearGradient
       id="linearGradient5639"
       osb:paint="solid">
      <stop
         style="stop-color:#000000;stop-opacity:1;"
         offset="0"
         id="stop5641" />
    </linearGradient>
    <linearGradient
       inkscape:collect="always"
       xlink:href="#linearGradient5682"
       id="linearGradient5686"
       x1="-523.76542"
       y1="-250.73487"
       x2="-288.39655"
       y2="-250.73487"
       gradientUnits="userSpaceOnUse"
       gradientTransform="matrix(0.27522681,0,0,0.32313091,-601.25843,124.94556)" />
    <linearGradient
       inkscape:collect="always"
       xlink:href="#linearGradient5715"
       id="linearGradient5719"
       x1="-1531.8912"
       y1="229.08786"
       x2="-1474.3227"
       y2="229.08786"
       gradientUnits="userSpaceOnUse"
       gradientTransform="matrix(0.59041059,0,0,0.42478282,-727.93313,104.11217)" />
    <linearGradient
       inkscape:collect="always"
       xlink:href="#linearGradient5715"
       id="linearGradient5723"
       gradientUnits="userSpaceOnUse"
       x1="-1531.8912"
       y1="229.08786"
       x2="-1474.3227"
       y2="229.08786"
       gradientTransform="matrix(0.42240086,0,0,0.96381991,583.74001,853.78821)" />
    <linearGradient
       inkscape:collect="always"
       xlink:href="#linearGradient5715"
       id="linearGradient5738"
       gradientUnits="userSpaceOnUse"
       gradientTransform="matrix(0.59033616,0,0,0.43200974,358.54119,95.13927)"
       x1="-1531.8912"
       y1="229.08786"
       x2="-1474.3227"
       y2="229.08786" />
  </defs>
  <sodipodi:namedview
     id="base"
     pagecolor="#ffffff"
     bordercolor="#666666"
     borderopacity="1.0"
     inkscape:pageopacity="0.0"
     inkscape:pageshadow="2"
     inkscape:zoom="1"
     inkscape:cx="509.23685"
     inkscape:cy="800.50913"
     inkscape:document-units="px"
     inkscape:current-layer="layer1"
     showgrid="false"
     showguides="false"
     inkscape:window-width="1920"
     inkscape:window-height="1018"
     inkscape:window-x="-8"
     inkscape:window-y="-8"
     inkscape:window-maximized="1" />
  <metadata
     id="metadata7">
    <rdf:RDF>
      <cc:Work
         rdf:about="">
        <dc:format>image/svg+xml</dc:format>
        <dc:type
           rdf:resource="http://purl.org/dc/dcmitype/StillImage" />
        <dc:title></dc:title>
      </cc:Work>
    </rdf:RDF>
  </metadata>
  <g
     inkscape:label="Livello 1"
     inkscape:groupmode="layer"
     id="layer1">
    <path
       style="fill:#000000;fill-opacity:0;stroke:#000000;stroke-width:2.02030516;stroke-opacity:1"
       d=""
       id="path4149"
       inkscape:connector-curvature="0" />
    <path
       style="fill:#000000;fill-opacity:0;stroke:#000000;stroke-width:2.02030516;stroke-opacity:1"
       d=""
       id="path4153"
       inkscape:connector-curvature="0" />
    <path
       style="fill:#000000;fill-opacity:0;stroke:#000000;stroke-width:2.02030516;stroke-opacity:1"
       d=""
       id="path4155"
       inkscape:connector-curvature="0" />
    <path
       style="fill:#000000;fill-opacity:0;stroke:#000000;stroke-width:2.02030516;stroke-opacity:1"
       d=""
       id="path4157"
       inkscape:connector-curvature="0" />
    <path
       style="fill:#000000;fill-opacity:0;stroke:#000000;stroke-width:2.02030516;stroke-opacity:1"
       d=""
       id="path4159"
       inkscape:connector-curvature="0" />
    <path
       style="fill:#000000;fill-opacity:0;stroke:#000000;stroke-width:2.02030516;stroke-opacity:1"
       d=""
       id="path4163"
       inkscape:connector-curvature="0" />
    <path
       style="fill:#000000;fill-opacity:0;stroke:#000000;stroke-width:2.02030516;stroke-opacity:1"
       d=""
       id="path4169"
       inkscape:connector-curvature="0" />
    <path
       style="fill:#000000;fill-opacity:0;stroke:#000000;stroke-width:2.02030516;stroke-opacity:1"
       d=""
       id="path4173"
       inkscape:connector-curvature="0" />
    <path
       style="fill:#000000;fill-opacity:0;stroke:#000000;stroke-width:0.71428573;stroke-opacity:1"
       d=""
       id="path5654"
       inkscape:connector-curvature="0" />
    <path
       style="fill:#000000;fill-opacity:0;stroke:#000000;stroke-width:0.71428573;stroke-opacity:1"
       d=""
       id="path5656"
       inkscape:connector-curvature="0" />
    <g
       id="g5889"
       transform="matrix(0.65578825,0,0,0.65578825,1078.1026,53.66552)">
      <g
         transform="matrix(1.1225732,0,0,0.99975386,46.614162,-8.0309084)"
         id="g5788">
        <rect
           style="fill:#f9f9f9;fill-opacity:0;stroke:#1f1010;stroke-width:1.01269782;stroke-miterlimit:4;stroke-dasharray:none;stroke-opacity:1"
           id="rect5750"
           width="969.30139"
           height="477.2778"
           x="-1501.1057"
           y="-28.867882"
           rx="31.393513"
           ry="5.261672" />
        <path
           style="fill:#f9f9f9;fill-rule:evenodd;stroke:#1f1010;stroke-width:2.83555365;stroke-linecap:butt;stroke-linejoin:miter;stroke-miterlimit:4;stroke-dasharray:none;stroke-opacity:1"
           d="m -1453.7689,-26.991655 0,471.433555 72.912,0 0,-471.433555 75.0566,-3.896145 0,479.22585 2.1444,-68.18254 -150.113,0 -2.1445,-62.33833 143.6796,0 0,-75.97483 -143.6796,-1.94807 2.1445,-64.28639 147.9686,-5.84422 -2.1445,-62.33832 -152.2576,3.89614 2.1446,-72.078679 152.2575,-11.688436 4.2889,-56.494102 z"
           id="path5752"
           inkscape:connector-curvature="0" />
        <path
           inkscape:connector-curvature="0"
           id="path5760"
           d="m -1305.9585,-28.867886 0,471.433556 72.912,0 0,-471.433556 75.0565,-3.896144 0,479.22585 2.1445,-68.18254 -150.113,0 -2.1445,-62.33832 143.6796,0 0,-75.97484 -143.6796,-1.94806 2.1445,-64.2864 147.9685,-5.84422 -2.1444,-62.33831 -152.2575,3.89614 2.1445,-72.07869 152.2574,-11.688436 4.2889,-56.494102 z"
           style="fill:#f9f9f9;fill-rule:evenodd;stroke:#1f1010;stroke-width:2.83555365;stroke-linecap:butt;stroke-linejoin:miter;stroke-miterlimit:4;stroke-dasharray:none;stroke-opacity:1" />
        <path
           style="fill:#f9f9f9;fill-rule:evenodd;stroke:#1f1010;stroke-width:2.83555365;stroke-linecap:butt;stroke-linejoin:miter;stroke-miterlimit:4;stroke-dasharray:none;stroke-opacity:1"
           d="m -1149.4121,-34.712104 0,471.433554 72.9122,0 0,-471.433554 75.0563,-3.896144 0,479.225848 2.14456,-68.18255 -150.11306,0 -2.1444,-62.33831 143.6796,0 0,-75.97483 -143.6796,-1.94808 2.1444,-64.2864 147.9685,-5.8442 -2.1444,-62.338328 -152.2575,3.896148 2.1444,-72.078688 152.2575,-11.688434 4.28898,-56.494104 z"
           id="path5764"
           inkscape:connector-curvature="0" />
        <path
           inkscape:connector-curvature="0"
           id="path5768"
           d="m -995.01009,-32.76403 0,471.43357 72.91205,0 0,-471.43357 75.0565,-3.896146 0,479.225846 2.14449,-68.18254 -150.11304,0 -2.14453,-62.33831 143.67966,0 0,-75.97483 -143.67966,-1.94808 2.14453,-64.2864 147.96855,-5.84421 -2.14446,-62.33833 -152.2576,3.89616 2.14456,-72.078694 152.2575,-11.688435 4.28894,-56.494105 z"
           style="fill:#f9f9f9;fill-rule:evenodd;stroke:#1f1010;stroke-width:2.83555365;stroke-linecap:butt;stroke-linejoin:miter;stroke-miterlimit:4;stroke-dasharray:none;stroke-opacity:1" />
        <path
           style="fill:#f9f9f9;fill-rule:evenodd;stroke:#1f1010;stroke-width:2.83555365;stroke-linecap:butt;stroke-linejoin:miter;stroke-miterlimit:4;stroke-dasharray:none;stroke-opacity:1"
           d="m -838.46366,-30.815958 0,471.433568 72.91206,0 0,-471.433568 75.05652,-3.896146 0,479.225854 2.14448,-68.18254 -150.11306,0 -2.14447,-62.33833 143.67963,0 0,-75.97482 -143.67963,-1.94807 2.14447,-64.28641 147.96858,-5.8442 -2.14447,-62.33833 -152.25753,3.89615 2.14448,-72.078692 152.25752,-11.688435 4.28894,-56.494103 z"
           id="path5772"
           inkscape:connector-curvature="0" />
        <path
           inkscape:connector-curvature="0"
           id="path5776"
           d="m -681.91719,-28.867886 0,471.433576 72.91205,0 0,-471.433576 75.05652,-3.896144 0,479.22586 2.14447,-68.18254 -150.11304,0 -2.14448,-62.33832 143.67962,0 0,-75.97484 -143.67962,-1.94807 2.14448,-64.28639 147.96857,-5.84422 -2.14447,-62.33832 -152.25752,3.89614 2.14447,-72.07869 152.25752,-11.688436 4.28895,-56.494102 z"
           style="fill:#f9f9f9;fill-rule:evenodd;stroke:#1f1010;stroke-width:2.83555365;stroke-linecap:butt;stroke-linejoin:miter;stroke-miterlimit:4;stroke-dasharray:none;stroke-opacity:1" />
      </g>
      <path
         inkscape:connector-curvature="0"
         id="path5673"
         d="m -870.81801,14.379379 c -1.83185,2.43e-4 -2.5373,1.359487 -2.73051,5.257609 -0.0425,0.856846 -0.15178,1.207283 -0.24237,0.778856 -0.0905,-0.428418 -0.24977,-1.177187 -0.35401,-1.664625 -0.45709,-2.137952 -3.24629,-3.20616 -4.55333,-1.743517 -0.49092,0.549321 -0.59683,1.617989 -0.54697,5.503303 0.047,3.692114 -0.0593,4.86721 -0.45529,5.019067 -0.28437,0.10904 -0.74391,-0.04513 -1.02119,-0.34215 -0.70583,-0.756006 -1.77252,-4.134669 -1.77252,-5.614963 0,-1.536294 -1.50025,-3.843711 -2.60404,-4.003561 -2.76542,-0.400492 -2.74506,7.584787 0.0348,13.798388 0.56372,1.260072 1.61629,4.655778 2.34087,7.54761 0.72452,2.891815 1.72014,6.351062 2.21157,7.685886 l 0.32406,0.879122 c -2.01772,4.406006 -3.34763,8.15838 -3.56018,9.968276 -1.12774,2.063668 -2.0076,3.423737 -2.24912,3.366314 -0.24758,-0.05884 -0.34345,0.06361 -0.21382,0.273246 0.32173,0.520562 -1.89551,4.01505 -2.30904,3.639082 -0.18169,-0.165178 -0.21293,-0.09435 -0.0679,0.158713 0.29951,0.522723 0.12214,0.798876 -5.92055,9.181827 -2.43068,3.372024 -4.5576,6.046011 -4.72684,5.941423 -0.16924,-0.104588 -0.28437,0.115462 -0.25518,0.488037 0.0296,0.374632 -0.17614,0.628951 -0.46142,0.569758 -0.28366,-0.05892 -0.40368,0.07428 -0.26659,0.296052 0.13717,0.221854 -0.41566,1.495723 -1.22792,2.832196 -1.61545,2.658167 -6.74868,12.969557 -8.51842,17.110062 -0.61235,1.43265 -1.28198,2.5001 -1.48737,2.37315 -0.20545,-0.12694 -0.24713,-0.0281 -0.0941,0.21955 0.40123,0.64916 -1.05669,5.6466 -2.65584,9.10863 -1.38841,3.00579 -7.03774,13.50002 -9.38666,17.4351 -3.8763,6.49388 -6.89942,13.75136 -8.92332,21.42061 -0.8745,3.31369 -2.11525,6.61001 -3.88474,10.32135 -2.80286,5.87862 -8.6479,15.13567 -9.30162,14.73168 -0.23225,-0.14355 -0.28192,-0.0556 -0.11828,0.20909 0.16557,0.26791 -1.94144,3.70785 -5.10462,8.33644 -2.96205,4.33417 -6.40373,9.41586 -7.64932,11.29313 -1.24559,1.87727 -2.42559,3.31548 -2.62163,3.1943 -0.19624,-0.12126 -0.24095,0.0803 -0.0998,0.44811 0.17639,0.45981 0.111,0.57802 -0.20913,0.38016 -0.2559,-0.15814 -0.42598,-0.14278 -0.37824,0.0337 0.18175,0.67214 -0.6445,2.38728 -2.7899,5.79507 -2.59258,4.11809 -7.25376,13.25625 -7.99573,15.67592 -0.28276,0.92222 -1.40395,3.24347 -2.4924,5.15782 -1.08845,1.91438 -1.97829,3.63621 -1.97829,3.8263 0,0.66467 -3.57382,3.26631 -5.48288,3.99169 -2.3653,0.89876 -4.1834,0.91652 -9.1566,0.0898 -2.1235,-0.35295 -5.9646,-0.67025 -8.53511,-0.70517 -3.9838,-0.0542 -5.2768,-0.24356 -8.7627,-1.27973 -2.2492,-0.66858 -6.3671,-1.59383 -9.1519,-2.05618 -5.9266,-0.98401 -9.9209,-2.42047 -17.138,-6.16762 -5.0551,-2.62461 -8.3298,-4.49292 -9.7122,-5.53134 -0.4904,-1.03214 -1.1986,-1.77604 -2.1379,-2.15646 l -7.5162,-3.04413 c -6.4683,-3.37976 -12.75,-6.21958 -18.8013,-8.48423 -2.0854,-0.78041 -6.2315,-2.09773 -10.4169,-3.34874 l -67.2561,-27.23895 c -3.5987,-1.45752 -9.4641,2.78599 -14.6961,10.0714 -0.1173,-0.0548 -0.2052,-0.0947 -0.325,-0.15065 -11.8129,-5.519 -17.1293,-7.05895 -31.1584,-9.02595 -3.8558,-0.54062 -10.6904,-1.49859 -15.1888,-2.12985 -10.2504,-1.43843 -20.0855,-3.53902 -25.0212,-5.34362 -2.09,-0.76421 -5.3237,-1.80171 -7.1855,-2.3052 -2.6974,-0.72948 -9.1728,-3.76722 -11.9485,-5.44437 a 31.409895,15.763241 32.581038 0 0 -14.3723,-12.36614 31.409895,15.763241 32.581038 0 0 -9.3568,-4.637 c -1.5687,-0.79746 -3.0011,-1.47565 -3.6148,-1.6922 -1.15,-0.4057 -2.8339,-0.60669 -3.9774,-0.55645 a 31.409895,15.763241 32.581038 0 0 -17.2494,4.48066 31.409895,15.763241 32.581038 0 0 19.3806,30.31921 31.409895,15.763241 32.581038 0 0 18.4344,7.16839 c 2.165,1.03895 4.6163,0.46446 6.4485,1.42418 4.3495,2.27834 8.8342,2.56686 12.436,0.80118 1.5635,-0.76638 2.0969,-0.82806 4.9383,-0.57119 1.7521,0.15839 4.2942,0.65839 5.6483,1.11102 3.8397,1.28352 30.5319,15.46164 35.7958,19.01372 6.8483,4.62114 13.7378,7.13407 23.8147,8.66052 -0.4516,4.52364 0.4632,7.81138 2.8507,8.77839 l 96.1402,38.93505 c 2.3517,1.1928 4.9066,2.55774 7.0624,3.80399 2.366,1.36782 3.9577,2.70898 6.5183,5.4933 3.9782,4.32551 4.521,5.36841 3.383,6.50645 -0.6975,0.6974 -1.065,0.74838 -3.4015,0.47899 -4.1676,-0.48042 -23.6003,-0.31306 -27.7407,0.23902 -2.0349,0.27133 -7.2052,1.08892 -11.4895,1.81575 -1.416,0.24028 -2.6321,0.43989 -3.8861,0.64674 l -56.5607,0.8511 c -2.2539,0.0341 -4.2791,2.00865 -5.8218,5.2709 -2.2618,0.49617 -4.9253,1.21739 -6.6133,1.81005 l -3.9446,1.38522 -4.0393,-0.39965 c -2.2214,-0.21972 -7.0185,-0.84499 -10.6601,-1.38901 -4.2229,-0.63086 -9.3007,-1.07713 -14.0204,-1.23362 -7.1338,-0.23654 -7.6321,-0.20279 -13.8273,0.94469 -7.5542,1.39919 -12.0852,2.12231 -20.0568,3.20143 -3.2132,0.43504 -7.5948,1.04785 -9.7368,1.3624 -18.2792,2.68372 -26.98,2.79292 -34.9311,0.43765 -4.3624,-1.29213 -5.5028,-1.43093 -8.6909,-1.05589 -2.2178,0.26092 -3.2635,0.17662 -5.6092,-0.45049 -2.3103,-0.61765 -3.7431,-0.7383 -7.2051,-0.60539 -3.9481,0.15158 -4.6583,0.30316 -8.2166,1.74207 -4.8671,1.96822 -7.7336,2.26242 -22.0057,2.26242 -9.0908,0 -10.551,0.0867 -12.2663,0.72279 -1.0711,0.39721 -2.2276,0.96788 -2.5685,1.26926 -0.3408,0.30137 -1.9175,0.6781 -3.5046,0.83634 l -2.8859,0.28703 -0.01,1.5292 a 19.828675,16.681267 0 0 0 -8.5893,13.72046 19.828675,16.681267 0 0 0 19.8278,16.68 19.828675,16.681267 0 0 0 14.9013,-5.69478 c 0.4953,-0.21839 0.9801,-0.43007 1.5216,-0.67527 11.9637,-5.41672 21.8642,-8.33381 28.2354,-8.31791 2.035,0.005 6.067,-0.016 8.959,-0.0476 11.0196,-0.11947 17.3562,0.12398 22.7193,0.87199 3.0341,0.42315 6.4817,0.88117 7.6598,1.01788 3.6911,0.42818 15.5517,2.53589 20.8361,3.70277 25.4135,5.61158 34.8134,6.07836 56.6672,2.81414 8.2161,-1.22722 9.6637,-1.39807 16.7769,-1.38427 1.7449,6.27414 4.7027,10.40332 8.0034,10.35367 l 66.4248,-1.00078 c 1.0147,0.11199 2.0308,0.22182 3.0485,0.3241 6.9054,0.69397 26.5487,0.47138 31.9363,-0.36165 7.1558,-1.10647 17.4517,-3.34594 26.4539,-5.7542 7.1174,-1.90403 9.6024,-2.39794 13.4367,-2.6706 4.8663,-0.34592 14.3111,-1.52159 20.0882,-2.50004 1.8208,-0.30841 5.93971,-0.64823 9.15281,-0.75699 5.8697,-0.1987 15.77886,-1.59443 19.97123,-2.81318 1.15372,-0.33537 2.43448,-0.52327 2.8455,-0.41581 0.41104,0.10752 0.65218,0.043 0.53608,-0.14493 -0.11621,-0.18793 0.27793,-0.45559 0.87579,-0.59353 0.5978,-0.13798 2.48943,-0.60875 4.20312,-1.0464 1.7137,-0.43766 3.93043,-0.81137 4.92688,-0.83113 0.99658,-0.0194 1.63258,-0.1476 1.41373,-0.2832 -0.21885,-0.13554 1.157,-0.61494 3.05695,-1.06634 5.17503,-1.22941 14.10003,-3.77331 16.30746,-4.64796 1.07107,-0.42437 3.69952,-1.59528 5.84164,-2.60265 2.14206,-1.00731 5.27142,-2.34318 6.95406,-2.9681 1.68264,-0.62495 4.97879,-2.10192 7.32474,-3.28222 2.34603,-1.18034 4.45755,-2.02705 4.69263,-1.88181 0.23786,0.14701 0.31852,0.0861 0.18103,-0.13637 -0.30305,-0.4903 3.89814,-3.34718 4.4346,-3.01561 0.21132,0.13063 0.33779,0.0261 0.2789,-0.23238 -0.0587,-0.25868 1.11938,-1.00289 2.61886,-1.65416 11.36301,-4.93552 14.67657,-6.55615 20.48443,-10.01772 3.67517,-2.19048 6.78539,-3.80513 7.03491,-3.65094 0.26808,0.16568 0.34139,0.10471 0.1829,-0.15161 -0.34054,-0.55106 3.07724,-2.57822 3.69901,-2.194 0.27432,0.16957 0.35755,0.11921 0.20667,-0.12497 -0.24269,-0.39271 13.29981,-7.86531 18.04861,-9.95879 3.10134,-1.36718 6.87971,-2.12575 13.04282,-2.61786 5.50811,-0.43983 6.49903,-0.39473 14.80484,0.6724 3.85967,0.49592 7.45456,0.55733 20.64176,0.35357 15.04198,-0.2325 16.2511,-0.20041 20.83703,0.56642 9.64353,1.61259 11.34015,1.73434 14.2627,1.01314 4.81961,-1.18935 7.71421,-3.11811 9.17941,-6.11584 1.21879,-2.49339 3.89485,-10.25832 4.48595,-13.01669 0.44666,-2.08455 0.52964,-4.08581 0.34828,-8.38587 -0.13098,-3.10602 -0.34518,-6.36959 -0.47565,-7.2525 -0.23077,-1.56144 -0.19379,-1.62967 1.36664,-2.50667 1.13361,-0.63714 2.28875,-1.91516 3.93705,-4.35473 2.52281,-3.73365 2.94807,-4.79836 2.56945,-6.43754 -0.13517,-0.58512 -0.30222,-1.31695 -0.3707,-1.62709 -0.16222,-0.73477 -4.14283,-1.03688 -5.32553,-0.40393 -1.55437,0.83188 -1.67369,-0.16841 -0.22671,-1.90031 0.74585,-0.89275 1.70803,-2.567 2.13934,-3.71988 1.15868,-3.09677 0.76492,-4.00839 -3.61866,-8.37303 -3.61428,-3.59875 -3.72013,-3.66903 -5.80028,-3.84152 -1.99078,-0.1651 -2.21266,-0.0916 -3.65473,1.2113 -1.45786,1.31712 -1.64038,1.37469 -3.65191,1.17041 -1.7912,-0.18188 -2.28392,-0.0828 -3.1981,0.64104 -0.59452,0.47071 -1.33082,1.4563 -1.6371,2.18925 -0.58877,1.40917 -0.62446,1.43087 -3.24036,2.10086 -1.9949,0.51093 -3.1885,2.15337 -3.19243,4.38182 0,1.43614 -0.67794,2.48612 -2.12176,3.29411 -0.68934,0.38578 -1.73431,2.89692 -1.74874,4.20216 -0.0168,1.50607 1.53943,4.1642 3.63625,6.21135 l 2.11892,2.06905 -1.46411,2.9486 c -0.8053,1.6222 -1.68367,3.21335 -1.95071,3.53502 -0.84273,1.0155 -1.95966,3.44741 -2.21872,4.82803 -0.24108,1.28514 -0.29802,1.3221 -1.65938,1.08108 -8.13515,-1.44012 -18.48315,-2.55526 -23.80417,-2.5656 -4.9453,-0.009 -9.68366,-1.12905 -14.02981,-3.31264 -7.98729,-4.01293 -13.68823,-5.46431 -25.16282,-6.40759 -7.92507,-0.65151 -14.09971,0.29382 -21.25052,3.25656 -2.25189,0.93304 -3.92306,1.39843 -5.08889,1.40707 2.30047,-1.8265 3.55862,-3.23287 3.2689,-3.84248 l -1.51353,-3.18288 c 0.5558,-0.61945 1.11384,-1.22472 1.60237,-1.72118 1.94202,-1.97352 2.69534,-2.47752 4.01739,-2.68537 0.89492,-0.14071 2.7948,-0.86363 4.22116,-1.60712 1.42636,-0.74348 2.78901,-1.31375 3.02848,-1.2664 0.23946,0.0474 0.44362,-0.13881 0.45335,-0.41437 0.0213,-0.60067 1.01939,-1.28038 1.47023,-1.00173 0.17633,0.10888 0.27078,0.0469 0.21196,-0.1364 -0.0586,-0.18318 0.90233,-1.36811 2.13652,-2.63355 1.7332,-1.77713 2.34969,-2.19512 2.70718,-1.8376 0.72832,0.72828 2.04335,0.54285 2.93963,-0.41389 1.37727,-1.47028 1.71846,-2.87602 1.27638,-5.2676 -0.30692,-1.66013 -0.27355,-2.50941 0.15062,-3.75883 1.77239,-5.22036 2.7135,-16.26836 1.82192,-21.3883 -0.80935,-4.64784 -1.85007,-6.82168 -4.50443,-9.40849 -2.46681,-2.40398 -4.72864,-3.74269 -9.20936,-5.45292 -2.1007,-0.80181 -3.28476,-0.98758 -6.43183,-1.006 -5.5257,-0.0324 -8.3924,0.96177 -11.58348,4.01592 -1.31355,1.25719 -2.96829,2.64746 -3.67619,3.09023 -0.7079,0.44276 -1.99723,1.74797 -2.86638,2.89919 -0.86922,1.15122 -1.73502,1.9978 -1.92269,1.8818 -0.18773,-0.116 -0.22471,0.0905 -0.0837,0.45809 0.17285,0.45037 0.10876,0.57712 -0.19533,0.38919 -0.30402,-0.18793 -0.36812,-0.0616 -0.19527,0.38871 0.17285,0.45039 0.10971,0.57854 -0.19437,0.39062 -0.30409,-0.18792 -0.36722,-0.0621 -0.19437,0.38824 0.17285,0.45038 0.10927,0.57805 -0.19482,0.39013 -0.30402,-0.18791 -0.36818,-0.0608 -0.19527,0.38967 0.16138,0.42059 0.10365,0.57354 -0.15539,0.41342 -0.23419,-0.1447 -0.38868,0.0377 -0.35833,0.42294 0.0297,0.37464 -0.17665,0.63038 -0.46192,0.57118 -0.28379,-0.0588 -0.42076,0.0475 -0.30409,0.23617 0.11667,0.18878 -0.23844,1.50745 -0.78836,2.93057 -0.69025,1.78611 -1.20532,2.58699 -1.66319,2.58699 -0.97571,0 -4.89433,3.6429 -5.6644,5.26569 -0.79171,1.6683 -0.27979,2.79283 0.96701,2.12557 0.39183,-0.20971 1.1713,-0.38063 1.73257,-0.38063 0.97462,0 1.01579,0.083 0.9024,1.84948 -0.0824,1.28557 -0.27549,1.81834 -0.63387,1.74398 -0.28373,-0.0589 -0.41349,0.0579 -0.28798,0.26089 0.30633,0.49568 -1.32174,3.21172 -1.76208,2.93959 -0.16132,-0.0997 -0.22175,0.003 -0.1677,0.22049 -0.76459,0.36816 -1.55779,0.76384 -2.36702,1.17754 l -0.25706,-0.65387 c -2.06236,-5.25035 -2.52763,-11.45519 -1.32579,-17.6651 0.39383,-2.03499 1.1293,-5.80296 1.63613,-8.3735 0.50676,-2.57051 1.37881,-7.62711 1.93685,-11.23801 1.26222,-8.16696 2.36252,-12.53865 4.47739,-17.77867 3.90845,-9.68424 5.20956,-13.30157 6.2698,-17.437 0.61919,-2.41537 1.12479,-4.48617 1.12479,-4.60041 0,-0.11424 0.16073,-0.10866 0.35497,0.0114 0.19424,0.12002 0.25686,-0.14409 0.1411,-0.58687 -0.25203,-0.96403 0.62846,-2.77535 1.18231,-2.43303 0.22865,0.1413 0.26898,0.0452 0.0974,-0.23237 -0.17176,-0.27796 0.26723,-1.32145 1.06017,-2.51572 1.87675,-2.82664 2.68328,-4.48053 4.88789,-10.0329 2.13052,-5.3655 6.67264,-19.250454 8.83873,-27.01846 1.46495,-5.253323 2.33758,-7.744004 4.65364,-12.655541 l 1.11056,0.671933 c 0.89337,0.540557 4.36721,-4.645789 7.78996,-11.628622 l 2.85788,-5.829762 c 1.08413,-2.211803 2.00779,-4.30272 2.76471,-6.182821 0.13961,-0.1095 0.24945,-0.187368 0.28746,-0.189138 0.21395,-0.01024 0.39615,-0.280761 0.40394,-0.602075 0.0226,-0.913244 1.44041,-3.495227 1.79815,-3.274127 0.17646,0.10904 0.20527,-0.101932 0.0644,-0.4695 -0.17285,-0.450391 -0.10875,-0.577126 0.19527,-0.389194 0.28881,0.178491 0.37218,0.07359 0.23238,-0.290819 -0.26872,-0.70025 0.56043,-2.341904 2.97809,-5.896757 1.01978,-1.499464 2.08355,-3.252605 2.36316,-3.895215 0.27967,-0.642628 1.08317,-1.856809 1.7863,-2.698668 1.42706,-1.708596 1.51552,-2.085536 0.73985,-3.146299 -0.39363,-0.538404 -1.0764,-0.753715 -2.54233,-0.800238 -1.10249,-0.03497 -1.92146,0.0197 -1.81953,0.121658 0.10191,0.101923 -0.6793,0.868422 -1.73587,1.703589 -1.05656,0.83515 -2.25627,2.173567 -2.66685,2.974274 -0.63214,1.233056 -3.59444,4.603136 -5.41302,6.351053 l -0.95561,-0.577845 c 0.0958,-0.215069 0.19509,-0.434598 0.31124,-0.663854 0.57757,-1.139707 1.45457,-3.12982 1.94788,-4.421262 0.49329,-1.29146 1.09715,-2.299442 1.34196,-2.24057 0.24475,0.05892 0.33611,-0.0689 0.20339,-0.283695 -0.13271,-0.214764 0.0232,-1.27767 0.34544,-2.362696 0.65694,-2.21202 0.36884,-3.575273 -0.89666,-4.252561 -1.86051,-0.995694 -3.55121,0.200915 -4.91547,3.480838 -0.55475,1.333592 -3.22954,6.320646 -3.93898,7.342314 0,0.0017 -0.009,0.0026 -0.0116,0.0043 l -2.8189,-1.705976 -0.17774,-2.437771 c -0.67221,-9.237965 -0.72504,-9.609715 -1.54059,-10.506202 -0.4464,-0.490753 -1.25338,-0.874878 -1.83616,-0.875321 l -4.6e-4,0 0,0 z m -12.91835,6.683215 c 0.038,0.01215 0.0296,0.121952 -0.0264,0.327414 -0.0877,0.321314 -0.49645,0.624534 -0.90716,0.674302 -0.5246,0.06361 -0.57254,0.01666 -0.16202,-0.156335 0.32134,-0.135447 0.72928,-0.438667 0.90619,-0.674311 0.0777,-0.103338 0.13458,-0.159824 0.16969,-0.170602 l 4.6e-4,0 c 0.007,-0.0017 0.0141,-0.0017 0.0194,-4.68e-4 z m 34.21679,6.807241 c 0.0194,0.0093 0.0162,0.13891 -0.006,0.392995 -0.0645,0.733452 -1.03163,1.236449 -1.03163,0.536503 0,-0.244704 0.16267,-0.34477 0.36064,-0.222392 0.19804,0.122351 0.4426,-0.04634 0.54413,-0.374467 0.0713,-0.230741 0.1141,-0.34189 0.13349,-0.332639 z m -1.11287,2.088505 c 0.0521,0 0.0632,0.12906 0.0632,0.388716 0,0.321296 -0.16963,0.847681 -0.37734,1.168995 -0.33558,0.519295 -0.37727,0.519295 -0.37727,0 0,-0.321314 0.16963,-0.847699 0.37727,-1.168995 0.16782,-0.259656 0.26169,-0.388716 0.31413,-0.388716 z m -26.12036,10.432074 -0.36967,0.755573 c -0.44388,-0.30723 -0.32019,-0.560438 0.36967,-0.755573 z m 17.03025,163.841936 c 0.0232,0.009 0.0489,0.0443 0.076,0.1112 0.10804,0.26778 0.10804,0.70639 0,0.97415 -0.10804,0.26777 -0.19676,0.0485 -0.19676,-0.48708 0,-0.40164 0.0503,-0.62451 0.12074,-0.59827 z m 3.68992,1.76679 c 0.22684,0 0.41244,0.17594 0.41244,0.39014 0,0.21422 -0.0771,0.38872 -0.17149,0.38872 -0.0945,0 -0.28109,-0.1745 -0.41348,-0.38872 -0.13233,-0.2142 -0.0541,-0.39014 0.17253,-0.39014 z m 92.88884,5.19442 c 0.0625,-0.006 0.13683,0.0127 0.21717,0.0622 0.21421,0.13238 0.38964,0.31896 0.38964,0.41343 0,0.0944 -0.17543,0.17202 -0.38964,0.17202 -0.21427,0 -0.38829,-0.18514 -0.38829,-0.412 0,-0.14178 0.0674,-0.22544 0.17112,-0.2357 z m 2.902,13.231 c 0.45129,0.018 0.81864,0.2835 0.7903,0.74369 -0.0245,0.39702 -0.0715,0.39587 -0.23335,-0.008 -0.15287,-0.38157 -0.34647,-0.33313 -0.77786,0.19484 -0.31542,0.38623 -0.44421,0.45337 -0.28611,0.14921 0.21905,-0.4213 0.10984,-0.48662 -0.45806,-0.27182 -0.69746,0.26382 -0.70358,0.24022 -0.0941,-0.37587 0.30653,-0.30993 0.70822,-0.446 1.0592,-0.43197 z m 0.22478,9.40706 c -0.0704,-0.0263 -0.12163,0.19807 -0.12163,0.59972 0,0.53553 0.0887,0.75387 0.19675,0.48611 0.10804,-0.26777 0.10804,-0.70641 0,-0.97416 -0.0271,-0.067 -0.0516,-0.10294 -0.0752,-0.11167 z m 0.34931,5.40825 c -0.0593,-0.009 -0.1,0.13277 -0.11171,0.41629 -0.0168,0.4106 0.0754,0.64025 0.20481,0.51083 0.12949,-0.1294 0.14244,-0.46444 0.0297,-0.74559 -0.0464,-0.11649 -0.0876,-0.17618 -0.12306,-0.18153 z m -586.297,54.83147 c -0.1764,0 -0.3531,0.0278 -0.487,0.0817 -0.2678,0.10803 -0.049,0.1953 0.487,0.1953 0.5356,0 0.754,-0.0873 0.4862,-0.1953 -0.1339,-0.0541 -0.3097,-0.0817 -0.4862,-0.0817 z"
         style="fill:#000000;fill-opacity:1" />
      <ellipse
         ry="31.988329"
         rx="32.250446"
         cy="43.925461"
         cx="-713.02289"
         id="path5680"
         style="fill:url(#linearGradient5686);fill-opacity:1;stroke:#000000;stroke-width:0.29821852;stroke-opacity:1" />
      <rect
         ry="3.1756785"
         rx="17.507269"
         y="-44.446922"
         x="-1632.0826"
         height="491.74341"
         width="33.398666"
         id="rect5713"
         style="fill:url(#linearGradient5719);fill-opacity:1;stroke:#000000;stroke-width:0.50079566;stroke-opacity:1" />
      <rect
         transform="matrix(0.03296985,0.99945635,-0.99999856,-0.00169546,0,0)"
         style="fill:url(#linearGradient5723);fill-opacity:1;stroke:#000000;stroke-width:0.63805819;stroke-opacity:1"
         id="rect5721"
         width="31.56094"
         height="1122.6365"
         x="-70.787338"
         y="509.82724"
         rx="9.3323193"
         ry="7.5327206" />
      <rect
         style="fill:url(#linearGradient5738);fill-opacity:1;stroke:#000000;stroke-width:0.5050059;stroke-opacity:1"
         id="rect5736"
         width="33.394455"
         height="500.1095"
         x="-545.49445"
         y="-55.947289"
         rx="17.505062"
         ry="3.2297068" />
      <rect
         ry="5.6199126"
         rx="24.390015"
         y="443.16968"
         x="-1636.6512"
         height="112.40151"
         width="1128.7982"
         id="rect5740"
         style="fill:#008000;fill-opacity:1;stroke:#000000;stroke-width:0.59187138;stroke-opacity:1" />
    </g>
    <path
       style="fill:#000000;fill-opacity:0;stroke:#1f1010;stroke-width:1.95039797;stroke-miterlimit:4;stroke-dasharray:none;stroke-opacity:1"
       d=""
       id="path5845"
       inkscape:connector-curvature="0" />
    <path
       style="fill:#000000;fill-opacity:0;stroke:#1f1010;stroke-width:1.95039797;stroke-miterlimit:4;stroke-dasharray:none;stroke-opacity:1"
       d=""
       id="path5847"
       inkscape:connector-curvature="0" />
    <path
       style="fill:#000000;fill-opacity:0;stroke:#1f1010;stroke-width:1.95039797;stroke-miterlimit:4;stroke-dasharray:none;stroke-opacity:1"
       d=""
       id="path5855"
       inkscape:connector-curvature="0" />
  </g>
</svg>
